<svg xmlns="http://www.w3.org/2000/svg" xmlns:xlink="http://www.w3.org/1999/xlink" version="1.1" x="0px" y="0px" viewBox="0 0 100 125" enable-background="new 0 0 100 100" xml:space="preserve"><g><path d="M49.994,5.001c-24.655,0-44.839,20.06-44.993,44.715C4.924,61.738,9.534,73.067,17.977,81.62   c8.446,8.553,19.716,13.305,31.735,13.379c0.009,0,0.287,0,0.293,0c24.652,0,44.836-20.057,44.993-44.715   C95.153,25.476,75.096,5.161,49.994,5.001z M50.006,88.932v3.034l-0.255-3.034c-10.399-0.065-20.149-4.177-27.455-11.575   c-7.309-7.401-11.293-17.201-11.228-27.603c0.133-21.331,17.595-38.686,39.175-38.686c21.467,0.136,38.822,17.713,38.689,39.178   C88.795,71.58,71.334,88.932,50.006,88.932z"/><path d="M69.038,30.962c-1.185-1.185-3.105-1.185-4.29,0L50,45.71L35.252,30.962c-1.185-1.185-3.105-1.185-4.29,0   c-1.185,1.185-1.185,3.105,0,4.29L45.71,50L30.962,64.748c-1.185,1.185-1.185,3.105,0,4.29c0.593,0.593,1.369,0.889,2.145,0.889   s1.552-0.296,2.145-0.889L50,54.29l14.748,14.748c0.593,0.593,1.369,0.889,2.145,0.889c0.776,0,1.552-0.296,2.145-0.889   c1.185-1.185,1.185-3.105,0-4.29L54.29,50l14.748-14.748C70.223,34.067,70.223,32.147,69.038,30.962z"/></g><text x="0" y="115" fill="#000000" font-size="5px" font-weight="bold" font-family="'Helvetica Neue', Helvetica, Arial-Unicode, Arial, Sans-serif">Created by Marek Polakovic</text><text x="0" y="120" fill="#000000" font-size="5px" font-weight="bold" font-family="'Helvetica Neue', Helvetica, Arial-Unicode, Arial, Sans-serif">from the Noun Project</text></svg>